<svg xmlns="http://www.w3.org/2000/svg" xmlns:xlink="http://www.w3.org/1999/xlink" width="372" height="449" viewBox="0 0 372 449"><defs><path id="a" d="M1008.12 1791.36l-38.53-52.98-38.52-52.98-38.54-52.99-38.53-52.98c-81.84 59.48-135 155.93-135 264.9 0 35.33 5.59 69.33 15.92 101.2l62.35-20.24 62.36-20.25 62.33-20.23 62.34-20.24a65.45 65.45 0 0 1-3.19-20.24 65.33 65.33 0 0 1 27-52.97z"/><mask id="c" width="2" height="2" x="-1" y="-1"><path d="M719 1579h290v367H719z"/><use xlink:href="#a"/></mask><filter id="b" width="390" height="467" x="669" y="1529" filterUnits="userSpaceOnUse"><feOffset in="SourceGraphic" result="FeOffset1058Out"/><feGaussianBlur in="FeOffset1058Out" result="FeGaussianBlur1059Out" stdDeviation="16 16"/></filter></defs><g transform="translate(-678 -1538)"><g filter="url(#b)"><use fill="none" stroke-opacity=".2" stroke-width="0" mask="url(&amp;quot;#c&amp;quot;)" xlink:href="#a"/><use fill="#0c0c0f" fill-opacity=".2" xlink:href="#a"/></g><use xlink:href="#a"/></g></svg>